/* XPM */
static char *_2ce77a847944ae582e8ae658df7721ecooOtT8d5HFxq44H[] = {
/* columns rows colors chars-per-pixel */
"64 64 61 1 ",
"  c #573D26",
". c #5A3B27",
"X c #593D27",
"o c #5B3C27",
"O c #583E27",
"+ c #583D28",
"@ c #593D28",
"# c #5B3C28",
"$ c #5A3E28",
"% c #5A3E29",
"& c #593C2A",
"* c #5C3D28",
"= c #785537",
"- c #795439",
"; c #785539",
": c #7A5538",
"> c #795638",
", c #7A5739",
"< c #79553B",
"1 c #7A553A",
"2 c #78563A",
"3 c #79563A",
"4 c #78563B",
"5 c #79573B",
"6 c #7B563B",
"7 c #7A573B",
"8 c #7A563C",
"9 c #745843",
"0 c #6B6B6D",
"q c #696D6C",
"w c #6B6D6C",
"e c #966B48",
"r c #966B49",
"t c #946B4B",
"y c #966B4B",
"u c #946C49",
"i c #976C49",
"p c #956D4A",
"a c #976C4A",
"s c #956F4B",
"d c #956C4C",
"f c #976C4C",
"g c #986B4A",
"h c #996C4B",
"j c #986D4B",
"k c #986D4D",
"l c #B6855A",
"z c #B7865D",
"x c #B9845A",
"c c #BA855B",
"v c #B9865B",
"b c #B8845C",
"n c #B9855D",
"m c #BA875C",
"M c #B9855E",
"N c #BA845E",
"B c #BA865E",
"V c #BB865E",
"C c gray53",
"Z c #868887",
"A c #878789",
/* pixels */
"nga3;naa37X33n3nnaa3;nja35@33n3nnga3;naa35@33n3nngj5;naa37X33n3n",
"3a+3;rA@3na3na@@3aX;;rA@3nr5ng*@3a+3;rA@3nr5nj#@3g+-;aA@;na7na@@",
"x3;@x3-3n333#@n3n33@x533x333*&n3n3;@x533n333#@n3x3;@x3-3n37;*@n3",
"fwN3f*3zff=j3Vg3hwN3a@3nyj3g3ng3hwn3f*5nrj=g3ng3fwN3f*3zff=j3ng3",
"a3an@f;-r@3w3r@5j3an&f;-a@3w3t@5a3an.f;3g@3w3r@5a3an@f;-r@3w3r@5",
"3Xra3f@@&33@335n3@rr3y@X&53*3=5n3+af3f@ &33X335n3Xrf3f@@&33@335n",
"n337A33zn3nn3g3gn333C33nn3nn;a3an3;7A33bn3Nn3r3an337C33zn3nn3g3g",
"33nnaa53f@aa33fr53znag33r@fg33aa33nnyr53f@fr35aa33nnfa33f@aa33fr",
"a;7a3a3@3ga333@3a33a;a3X3aa333@3a33a3a3@3aa333X3a;7a3a3@3ga333@3",
"3a 35  33333nx3a3g@35 X33333nn5r3a@;3X@33333zn5r3a 35  33333nx3a",
"5a;nl6na@xnXaaA35r=nz5njXxnXarZ35a=nl3na@xx@aaA35a;nl6na@xnXaaA3",
"r53ahn;a0fa7+a3@a33rgn3rwfg3Xj3Xa32ajn3awfj3Xa;@r53ahn;a0fa7+a3@",
"3&a=arn43=3533nn3@a3faz;533333Nn3@a3aan;733;73nn3&a=arn43=3533nn",
"3r3393aa3&n@3maa3r339;aa3@n@3ngr3r3393aa3@n@3maa3r3393aa3&n@3maa",
"j3@n3X3Xnn3y33aaa3@m3@3Xnn3y33gfr3&n3X3@nn3f33rhj3@n3X3Xnn3y33aa",
"g3nja3C3jj33gr3@a3naf3Z3ah33jg3@j3nra3Z3ah3;rg3@g3nja3C3jj33gr3@",
"nga3;naa35@33n3nngr53Nrr35@33n3nngr33ngg33X35n3nnga3;naa37X33n3n",
"3a+3;aA@3nr5nj#@3g 33rA@3nr5nj#@3r@3;rA@3na3ng#@3a 3;rA@3na3na@@",
"x7;@x533n333#@n3n33@x533n333#@n3n33@x333n;3;*&n3x=3@x3-3n333#@n3",
"hwn;f*3zrj=g3ng3hwn3f*5nrj=g3ng3hwn3f@3zfa3h3ng3h0N3f*3zff=j3Vg3",
"a3an.f;3g@3w3r@5a3an.f;3g@3w3r@5a3an&g3-a@3w3t@5f3an@f;-r@3w3r@5",
"3+af3f@ &33X335n3+af3f@ &33X335n3@aa3aX+@53@333n3Xra3f@@&33@335n",
"n3;7A33Nn3Nn3r3an3;7A33Nn3Nn3r3an3;7A33nn3nn;a3an337A33zn3nn3g3g",
"33znar33f@fr35aa33znar33f@fr35aa33zzfa33g@fr33aa73znaa53f@aa33fr",
"a33a3a3@3aa333X3a33a3a3@3aa333X3j33a3a3@3ar333@3a;7a3a3@3ga333@3",
"3a@;3X@33333zn5r3a@;3X@33333zn5r3rX33 @33333nx5a3a 35  33333nx3a",
"5a=nl3na@xx@aaA35a=nl3na@xx@aaA33g3nl3nj@nn@aaA35a;nl6na@xnXaaA3",
"r5;ajn3awfj3Xa;@r5;ajn3awfj3Xa;@r53tjn=awaj6Xa2Xr53ahn;a0fa7+a3@",
"3@a3aan;733;73nn3@a3aan;733;73nn3Xa3fgn353=335nn3&a=arn43=3533nn",
"3r3393aa3@n@3maa3r3393aa3@n@3maa3a3393aa3@n@3xaa3r3393aa3&n@3maa",
"g3@n3@3@nn3f33rhg3@n3@3@nn3f33rhr3@m3X;+nn3y33aaj3@n3X3Xnn3y33aa",
"a3nya3Z3ah3;rg3@a3nya3Z3ah3;rg3@a3naa3A3ah33gg3Xg3nja3C3jj33gr3@",
"ngr33ngg33X35n3nngr33ngg33X35n3nnga5;naa35@33n3nngj5;naa37X33n3n",
"3r@3;rA@3na3ng#@3r@3;rA@3na3ng#@3a+3;rA@3nr5nj#@3g+-;aA@;na7na@@",
"n33@x333n;3;*&n3n33@x333n;3;*&n3x7;@x533n333#@n3x3;@x3-3n37;*@n3",
"hwn3f@3zfa3h3ng3hwn3f@3zfa3h3ng3hwn;f*5nrj=g3ng3fwN3f*3zff=j3ng3",
"a3an&g3-a@3w3t@5a3an&g3-a@3w3t@5a3an.f;3g@3w3r@5a3an@f;-r@3w3r@5",
"3@aa3aX+@53@333n3@aa3aX+@53@333n3+af3f@ &33X335n3Xrf3f@@&33@335n",
"n3;7A33nn3nn;a3an3;7A33nn3nn;a3an3;7A33bn3Nn3r3an337C33zn3nn3g3g",
"33zzfa33g@fr33aa33zzfa33g@fr33aa33nnyr53f@fr35aa33nnfa33f@aa33fr",
"j33a3a3@3ar333@3j33a3a3@3ar333@3a33a3a3@3aa333X3a;7a3a3@3ga333@3",
"3rX33 @33333nx5a3rX33 @33333nx5a3a@;3X@33333zn5r3a 35  33333nx3a",
"3g3nl3nj@nn@aaA33g3nl3nj@nn@aaA35a=nl3na@xx@aaA35a;nl6na@xnXaaA3",
"r53tjn=awaj6Xa2Xr53tjn=awaj6Xa2Xa32ajn3awfj3Xa;@r53ahn;a0fa7+a3@",
"3Xa3fgn353=335nn3Xa3fgn353=335nn3@a3aan;733;73nn3&a=arn43=3533nn",
"3a3393aa3@n@3xaa3a3393aa3@n@3xaa3r3393aa3@n@3maa3r3393aa3&n@3maa",
"r3@m3X;+nn3y33aar3@m3X;+nn3y33afr3&n3X3@nn3f33rhj3@n3X3Xnn3y33aa",
"a3naa3A3ah33gg3@a3naa3A3ah33gg3@j3nra3Z3ah3;rg3@g3nja3C3jj33gr3@",
"nga3;naa37X33n3nnaa3;nja35@33n3nngr33ngg33X35n3nnga3;naa37X33n3n",
"3a+3;rA@3na3na@@3aX;;rA@3nr5ng*@3r@3;rA@3na3ng#@3a 3;rA@3na3na@@",
"x3;@x3-3n333#@n3n33@x533x333*&n3n33@x333n;3;*&n3x=3@x3-3n333#@n3",
"fwN3f*3zff=j3Vg3hwN3a@3nyj3g3ng3hwn3f@3zfa3h3ng3h0N3f*3zff=j3Vg3",
"a3an@f;-r@3w3r@5j3an&f;-a@3w3t@5a3an&g3-a@3w3t@5f3an@f;-r@3w3r@5",
"3Xra3f@@&33@335n3@rr3y@X&53*3=5n3@aa3aX+@53@333n3Xra3f@@&33@335n",
"n337A33zn3nn3g3gn333C33nn3nn;a3an3;7A33nn3nn;a3an337A33zn3nn3g3g",
"33nnaa53f@aa33fr53znag33r@fg33aa33zzfa33g@fr33aa73znaa53f@aa33fr",
"a;7a3a3@3ga333@3a33a;a3X3aa333@3j33a3a3@3ar333@3a;7a3a3@3ga333@3",
"3a 35  33333nx3a3g@35 X33333nn5r3rX33 @33333nx5a3a 35  33333nx3a",
"5a;nl6na@xnXaaA35r=nz5nj@xx@ayC33g3nl3nj@nn@aaA35a;nl6na@xnXaaA3",
"r53ahn;a0fa7+a3@a33rgn3rwfj3Xa3Xr53tjn=awaj6Xa2Xr53ahn;a0fa7+a3@",
"3&a=arn43=3533nn3@a3faz;533333nn3Xa3fgn353=335nn3&a=arn43=3533nn",
"3r3393aa3&n@3maa3r339;aa3@n@=ngj3a3393aa3@n@3xaa3r3393aa3&n@3maa",
"j3@n3X3Xnn3y33aaa3@m3@3Xnn3y33afr3@m3X;+nn3y33aaj3@n3X3Xnn3y33aa",
"g3nja3C3jj33gr3@a3naf3Z3ah33ag3@a3naa3A3ah33gg3Xg3nja3C3jj33gr3@"
};
