/* XPM */
static char *cd26223a6c8941ee9a3dc63546119e13AkJWNujTgXiQN1wB[] = {
/* columns rows colors chars-per-pixel */
"64 64 5 1 ",
"  c None",
". c #FFA000",
"X c #FFA100",
"o c #FFA200",
"O c #FFA300",
/* pixels */
"oooooooooooooooooooooooooooooooooooooooooooooooooooooooooooooooo",
"oooooooooooooooooooooooooooooooooooooooooooooooooooooooooooooooo",
"oooooooooooooooooooooooooooooooooooooooooooooooooooooooooooooooo",
"oooooooooooooooooooooooooooooooooooooooooooooooooooooooooooooooo",
"oooooooooooooooooooooooooooooooooooooooooooooooooooooooooooooooo",
"oooooooooooooooooooooooooooooooooooooooooooooooooooooooooooooooo",
"oooooooooooooooooooooooooooooooooooooooooooooooooooooooooooooooo",
"oooooooooooooooooooooooooooooooooooooooooooooooooooooooooooooooo",
"oooooooooo                   ooooo                  oooooooooooo",
"oooooooooo                   ooooo                  oooooooooooo",
"oooooooooo                   ooooo                  oooooooooooo",
"oooooooooo                   ooooo                  oooooooooooo",
"oooooooooo                   ooooo                  oooooooooooo",
"oooooooooo                   ooooo                  oooooooooooo",
"oooooooooo                   ooooo                  oooooooooooo",
"oooooooooo                   ooooo                  oooooooooooo",
"oooooooooo                   ooooo                  oooooooooooo",
"oooooooooo                   ooooo                  oooooooooooo",
"oooooooooo                   ooooo                  oooooooooooo",
"oooooooooo                   ooooo                  oooooooooooo",
"oooooooooo                   ooooo                  oooooooooooo",
"oooooooooo                   ooooo                  oooooooooooo",
"oooooooooo                   ooooo                  oooooooooooo",
"oooooooooo                   ooooo                  oooooooooooo",
"oooooooooo                   ooooo                  oooooooooooo",
"oooooooooo                   ooooo                  oooooooooooo",
"oooooooooo                   ooooo                  oooooooooooo",
"oooooooooo                   ooooo                  oooooooooooo",
"oooooooooo                   ooooo                  oooooooooooo",
"oooooooooo                   ooooo                  oooooooooooo",
"oooooooooo                   ooooo                  oooooooooooo",
"oooooooooo                   ooooo                  oooooooooooo",
"oooooooooo                   ooooo                  oooooooooooo",
"oooooooooo                   ooooo                  oooooooooooo",
"oooooooooo                   ooooo                  oooooooooooo",
"oooooooooo                   ooooo                  oooooooooooo",
"oooooooooo                   ooooo                  oooooooooooo",
"oooooooooo                   ooooo                  oooooooooooo",
"oooooooooo                   ooooo                  oooooooooooo",
"oooooooooo                   ooooo                  oooooooooooo",
"oooooooooo                   ooooo                  oooooooooooo",
"oooooooooo                   ooooo                  oooooooooooo",
"oooooooooo                   ooooo                  oooooooooooo",
"oooooooooo                   ooooo                  oooooooooooo",
"oooooooooo                   ooooo                  oooooooooooo",
"oooooooooo                   ooooo                  oooooooooooo",
"oooooooooo                   ooooo                  oooooooooooo",
"oooooooooo                   ooooo                  oooooooooooo",
"oooooooooo                   ooooo                  oooooooooooo",
"oooooooooo                   ooooo                  oooooooooooo",
"oooooooooo                   ooooo                  oooooooooooo",
"oooooooooo                   ooooo                  oooooooooooo",
"oooooooooo                   ooooo                  oooooooooooo",
"oooooooooo                   ooooo                  oooooooooooo",
"oooooooooo                   ooooo                  oooooooooooo",
"oooooooooo                   ooooo                  oooooooooooo",
"oooooooooooooooooooooooooooooooooooooooooooooooooooooooooooooooo",
"oooooooooooooooooooooooooooooooooooooooooooooooooooooooooooooooo",
"oooooooooooooooooooooooooooooooooooooooooooooooooooooooooooooooo",
"oooooooooooooooooooooooooooooooooooooooooooooooooooooooooooooooo",
"oooooooooooooooooooooooooooooooooooooooooooooooooooooooooooooooo",
"oooooooooooooooooooooooooooooooooooooooooooooooooooooooooooooooo",
"oooooooooooooooooooooooooooooooooooooooooooooooooooooooooooooooo",
"oooooooooooooooooooooooooooooooooooooooooooooooooooooooooooooooo"
};
