/* XPM */
static char *_a67fad8ea9143d8b61e97b8d973467dBOyZpnTVM0Lyn7Uf[] = {
/* columns rows colors chars-per-pixel */
"64 64 110 2 ",
"   c #C3BE86",
".  c #C3BE87",
"X  c #C2BC88",
"o  c #C3BC88",
"O  c #C3BD89",
"+  c #C1BE89",
"@  c #C3BD8B",
"#  c #C4BD89",
"$  c #C4BE8A",
"%  c #C5BE8A",
"&  c #C2BF8C",
"*  c #C4C18C",
"=  c #C6C08C",
"-  c #C7C18D",
";  c #CFCA93",
":  c #CECB96",
">  c #D2CB94",
",  c #D4CB94",
"<  c #D3CC95",
"1  c #D2CD95",
"2  c #D3CC96",
"3  c #D3CE97",
"4  c #D4CD96",
"5  c #D4D093",
"6  c #D4D392",
"7  c #D4D393",
"8  c #D5D494",
"9  c #D7D797",
"0  c #D4D599",
"q  c #D5D599",
"w  c #D6D698",
"e  c #D6D69A",
"r  c #D7D89C",
"t  c #D8D89A",
"y  c #D9DB9C",
"u  c #DADA9C",
"i  c #D9DA9E",
"p  c #DADB9F",
"a  c #DBDB9F",
"s  c #DADC9D",
"d  c #DADF9D",
"f  c #D8DC9F",
"g  c #DBDD9E",
"h  c #D8DE9E",
"j  c #D9DE9E",
"k  c #D9DF9F",
"l  c #DADF9F",
"z  c #DADBA1",
"x  c #D8DCA1",
"c  c #DBDCA0",
"v  c #D8DEA0",
"b  c #DADEA1",
"n  c #DCDCA0",
"m  c #D9E2A3",
"M  c #DDE6A5",
"N  c #DCE7A5",
"B  c #DDE6A7",
"V  c #DEE9A7",
"C  c #DEE8A9",
"Z  c #DDEEA8",
"A  c #E0E6A6",
"S  c #E1E7A7",
"D  c #E1EDAB",
"F  c #E0ECAC",
"G  c #E1EDAD",
"H  c #E7F6B3",
"J  c #ECF7B3",
"K  c #EAF6B4",
"L  c #EBF7B5",
"P  c #E8F7B6",
"I  c #EBF7B7",
"U  c #EEF7B6",
"Y  c #EDF8B3",
"T  c #EEF8B3",
"R  c #E9F8B5",
"E  c #E9F8B7",
"W  c #EAF9B6",
"Q  c #EDF8B4",
"!  c #ECF9B4",
"~  c #EEF9B5",
"^  c #ECF8B6",
"/  c #EDF8B6",
"(  c #EDF9B7",
")  c #E8F6B8",
"_  c #EDF7B8",
"`  c #EBFAB9",
"'  c #ECF8B8",
"]  c #EEF8B9",
"[  c #F3F7BC",
"{  c #F2F8BA",
"}  c #F2F8BC",
"|  c #F2FABE",
" . c #F5F9BE",
".. c #F4FABE",
"X. c #FAF9C3",
"o. c #F8F8C4",
"O. c #F9F9C5",
"+. c #FAF8C5",
"@. c #F8FBC4",
"#. c #FAFAC4",
"$. c #F9F9C7",
"%. c #FBF9C6",
"&. c #F8FBC6",
"*. c #FAFAC6",
"=. c #F9FCC7",
"-. c #F9F8C8",
";. c #F8FBCE",
":. c #F9FAD0",
">. c #F8FBD0",
",. c #F9FAD2",
/* pixels */
"j Q Q & O j C   O j Q o.o.G O O j Q W & # z V   O h U o.o.G O O j Q _ & O z V   O j U o.o.G # O j J Q & O b V   O j Q o.o.G O O ",
"6 L O & e P O 0 O 1 , W Q # n z 7 L O O e W O 0 O 1 > L Q O n b 6 W X % e L O 0 # > , U W O a b 6 W O % 0 W O 0 O > , ' Q # n b ",
"L O j a a o.O ; z b e o.Y ` = e U O j j a o.O ; b n e o.Q W = 8 U O j j a o.O ; b n e o.J W = 9 W O j z a o.O ; z j e o.Q ` % 9 ",
"Q U & j C o.a a 1 a +.o.O Q ' o.W U O k C o.a a 1 b o.o.O Q ` -.W U O k C o.z j 1 b o.o.# Q ' -.U U & j C o.a a 1 z +.o.O Q ' -.",
"= O #.#.o.o.L z ,.o.O O j n U Z = O #.o.o.o.L b ,.-.O # z j U Z # O #.o.o.o.W z ,.o.& O a z U Z = O #.#.o.o.L z :.o.O O j z U Z ",
"O b B O O # ' o.` O O a , b e ) # b B O # O U o.L # # z , z e ) O b B O O O Q o.L O O a 1 a e ) O b B O O # ' o.` O O a , b e ) ",
"S e { # b j j L U W a 1 7 > [ o.A e { # b j b W Q W z , 8 > { o.S e { # b j b W Q W a 1 6 > | o.A e { # b j j L U W j > 7 ; { o.",
"m B B +.;.:.+.7   a  .Y B o.| P m A B o.:.:.o.7 O j  .J B o. .P m A B +.:.:.o.6 O a  .Y B o.| E m A B o.;.:.o.8   a  .K B o.@.L ",
"W O # # a |   = O O , F # 1 Y Q U O # O a |   % o @ , G O , Q U Q O O O z  .O =   O > Z O 1 Y Q W O # O b  .O # O O , G X 1 Y Q ",
"W z e n > :.H B O O G z ;.U & O W b e b , ;.H B O @ G a >.L & O W b e z > :.P B O O G n :.U O O W a e n > ;.P B O O G n :.U O O ",
"#.| 8 z :.L W W o.j a ;.U O # z o.| 8 z :.L ' P o.j j :.Q # O b o.@.6 a ;.L Q P o.j n :.U X # z #.| 8 z :.L W W o.j a ;.U X O b ",
"o.U o.o.' # O a B =.W Y O e : j o.Q o.o._ # O a B o.Y W & e : n o.Q o.o.` O O a B o.W U & e : j o.U o.o._ #   a B =.W Y & e : j ",
"Q O = * @.j O 1 O O U `   e e #.) # = = @.b O 1 # O _ `   e 9 o.W O % = @.h O 1 # O ' W   e t o.` O = * #.j O 1 O O _ W   8 r +.",
"O O 1 e K ' ;.P B e b Q v 7 b o.O X 1 e L ' ;.P V 9 j Q b 8 v o.O O > 0 L ' ;.P B t b Q j 6 b o.O O > e W ' ;.P B t b ~ b 7 b o.",
"L 6 O z B y j | { | b _ D -.o.Q L 7 O r B y h | { | z ` G o.o.U P 7 O a B a j | { | z _ G o.o.Q L 6 O a B t j | { | b ) G -.o.Q ",
"0 o.B 0 a o.P O z j >.) O O Q z e o.V 0 a #.P O a a ,.) O # Q j e o.B e j o.P O b a ;.) O O ' n 0 o.B 0 b o.P O a a >.) O O Q z ",
"j U W & # z V   O j U o.o.G # O j Q _ & O z V   O j U o.o.G # O b Q Q & O j B   O b ' o.o.G O # j U L O O j C   O h Q o.o.G O O ",
"7 L O O e L + e # > , U W O a b 6 W X % e L O 0 # > , U W O a b 7 L O # e P O e O , , Q U O n j 7 L O & 0 W O e O > , W Q # n z ",
"L O j a a o.O ; b n e o.J W = 9 U O j j a o.O ; b n e o.J W = 9 W O j a a o.O ; b z e o.J W % e W O j a a o.O ; z b e o.Y ` = e ",
"L Q & b C o.a a 1 b o.o.# Q ' -.W U O k C o.z j 1 b o.o.# Q ' -.W U & j C o.a z 1 a o.@.O Y ` -.U U & j C o.a z 1 a +.o.O Q ' o.",
"# O #.o.o.o.P b ,.o.& O a z U Z # O #.o.o.o.W z ,.o.& O a z U Z # # o.o.o.o.W b :.o.& # j n U Z = O #.o.o.o.E z ,.o.O O j n U Z ",
"O b B O O O Q o.L O O a 1 a e ) O b B O O O Q o.L O O a 1 a e ) # b B * O O U o.L O O z , a e ) O b B O # # Q o.` O O a , b e ) ",
"S e { # b j b W Q W a 1 6 > | o.S e { # b j b W Q W a 1 6 > | o.A e { O v j b Q U Y z 1 6 : { o.A e { # j j j U U W a 1 7 > [ o.",
"m A B +.:.:.o.6 O a  .Y B o.| E m A B +.:.:.o.6 O a  .Y B o.| E m A B o.:.:.o.6 # j  .J B o. .P m B B #.:.:.o.8   a  .Y B o.| P ",
"Q O O O z  .O =   O > Z O 1 Y Q Q O O O z  .O =   O > Z O 1 Y Q Q # # O z  .O = O O > G X , U U W O # # a |   = O O , F # 1 Y Q ",
"W b e z > :.P B O O G n :.U O O W b e z > :.P B O O G n :.U O O W j e n 1 :.H B O % G n >.Q & # W z e n > :.H B O O G z ;.U & O ",
"o.@.6 a ;.L Q P o.j n :.U X # z o.@.6 a ;.L Q P o.j n :.U X # z o.o.6 j ;.L Q W o.j a ;.Q O O z #.| 8 z :.L W W o.j a ;.U O # z ",
"o.Q o.o.` O O a B o.W U & e : j o.Q o.o.` O O a B o.W U & e : j o.Q o.o.) O + a V o.Q W & e : j o.U o.o.' # O a B =.W Y O e : j ",
"W O % = @.h O 1 # O ' W   e t o.W O % = @.h O 1 # O ' W   e t o.' O = * o.j O 1 O   _ `   e t o.Q O = * @.j O 1 O O U `   e e #.",
"O O > 0 L ' ;.P B t b Q j 6 b o.O O > 0 L ' ;.P B t b Q j 6 b o.O O 1 8 U ' ;.W B e j Q h 7 b o.O O 1 e K ' ;.P B e b Q v 7 b o.",
"P 7 O a B a j | { | z _ G o.o.Q P 7 O a B a j | { | z _ G o.o.Q P 7 # a B j j | | | z ` D o.o.U L 6 O z B y j | { | b _ D -.o.Q ",
"e o.B e j o.P O b a ;.) O O ' n e o.B e j o.P O b a ;.) O O ' n e o.B 0 a o.P O a z :.) O O U z 0 o.B 0 a o.P O z j >.) O O Q z ",
"j Q U & O a B   O b ' o.o.G O O j U U & O a B   # j U +.o.G O O j U L & O a V   O j U o.o.G # O j J Q & O b V   O j Q o.o.G O O ",
"7 L O O 0 W O e O , , Q U O z b 7 L X & 0 W O e O > > ` J # b a 7 L O O e L + 0 # > , U W O a b 6 W O % 0 W O 0 O > , ' Q # n b ",
"W O j a j o.# ; b z e o.Y W % 9 L O j j j o.O ; z b r o.J Q % t L O j a a o.O : b n e o.J W = 9 W O j z a o.O ; z j e o.Q ` % 9 ",
"W U & j C +.z b 1 a o.@.O Y ` -.W Q O b C +.a z 1 a o.@.O Q ` -.W U O m C o.a a 1 b o.o.# Q ' -.U U & j C o.a a 1 z +.o.O Q ' -.",
"% O o.o.o.o.) n :.o.% O a a Q Z % # o.o.o.o.W b :.o.& # z a Q Z # O #.o.o.o.W z ,.o.& O a z U Z = O #.#.o.o.L z :.o.O O j z U Z ",
"# b C O # # Q o.P O O b 1 a e ) # b C O # # Q o.L O O z 1 a e ) O b B O O O Q o.L O O a 1 a e ) O b B O O # ' o.` O O a , b e ) ",
"S e { O j j j W U Y z > 6 > | o.S e { O z j j W U Y z > 8 ; [ o.S e { O b j j W Q W a 1 6 > | o.A e { # b j j L U W j > 7 ; { o.",
"m A B o.:.:.o.7 O j  .U B o. .P m A B o.:.;.o.7 O j  .U B o.| L m A B +.:.:.o.8 O a  .Y B o.| E m A B o.;.:.o.8   a  .K B o.@.L ",
"Q # O O z  .O = O O > G O 1 U L Q # O O a  .O = O O > G O 1 J U Q O O O z  .O =   O > Z O 1 Y Q W O # O b  .O # O O , G X 1 Y Q ",
"W j e n 1 :.H B O % G z ;.Q O O W b e z 1 :.H B O % G z ;.Q & O W b e z > :.P B O O G n :.U O O W a e n > ;.P B O O G n :.U O O ",
"o.o.6 j ;.L Q W o.j a :.Q O O z #.| 6 a ;.W Q P o.j n ;.Q O O z o.@.6 a ;.L Q P o.j n :.U X # z #.| 8 z :.L W W o.j a ;.U X O b ",
"o.Q o.o.) O + a B @.Q Y % e : b +.L o.%.L O O a V o.Q W % 0 : b o.Q o.o.` O O a B o.W U & e : j o.U o.o._ #   a B =.W Y & e : j ",
"' O = * o.j O 1 O   ) `   8 a o.L O = * o.j O 3 O   _ W   8 a o.W O % = @.h O 1 # O ' W   e t o.` O = * #.j O 1 O O _ W   8 r +.",
"O O 1 8 U ' ;.W B r j ~ b 7 x o.O O > e L ' ;.W B r b Q b 7 v o.O O > 0 L ' ;.P B t b Q j 6 b o.O O > e W ' ;.P B t b ~ b 7 b o.",
"P 7 # a B j j | [ | z ` D o.o.Q P 7 # a B j j | { | z ` G o.o.Q P 7 O a B a j | { | z _ G o.o.Q L 6 O a B t j | { | b ) G -.o.Q ",
"e o.B 0 a o.P O a b :.) O O L z e o.B 0 a o.P O a z :.) O O L a e o.B e j o.P O b a ;.) O O ' n 0 o.B 0 b o.P O a a >.) O O Q z ",
"j U L & O j C   O j Q o.o.G O O j U L & O b V   O h U o.#.G O O b Q Q & O j B   O b ' o.o.G O # j U L O O j C   O h Q o.o.G O O ",
"7 L O O e P O 0 O 1 , W Q # n z 8 W O O e L O 0 O 1 > L ! O a a 7 L O # e P O e O , , Q U O n j 7 L O & 0 W O e O > , W Q # n z ",
"' O j b a o.O ; z b e o.Y ` = e Q O j j a o.O ; b n e o.Y W = e W O j a a o.O ; b z e o.J W % e W O j a a o.O ; z b e o.Y ` = e ",
"Q L O j C o.a a 1 a +.o.O Q ' o.' Q # k C o.z a 1 b o.o.O ! ` -.W U & j C o.a z 1 a o.@.O Y ` -.U U & j C o.a z 1 a +.o.O Q ' o.",
"= O #.#.o.o.L z ,.o.O O j n U Z # # %.o.o.o.L b :.-.O O a z U Z # # o.o.o.o.W b :.o.& # j n U Z = O #.o.o.o.E z ,.o.O O j n U Z ",
"O b B O O # ' o.` O O a , b e ) @ b B O # O U o.L # O a 1 a e ) # b B * O O U o.L O O z , a e ) O b B O # # Q o.` O O a , b e ) ",
"S e { # b j j L U W a 1 7 > [ o.A 9 { O b j j W ' Q a 1 7 ; { o.A e { O v j b Q U Y z 1 6 : { o.A e { # j j j U U W a 1 7 > [ o.",
"m B B +.;.:.+.7   a  .Y B o.| P m B B +.:.:.o.7 O j  .U B o. .W m A B o.:.:.o.6 # j  .J B o. .P m B B #.:.:.o.8   a  .Y B o.| P ",
"W O # # a |   = O O , F # 1 Y Q U O # # z  .  = O O > G O 1 Q Q Q # # O z  .O = O O > G X , U U W O # # a |   = O O , F # 1 Y Q ",
"W z e n > :.H B O O G z ;.U & O W b e j > ;.H B O # G a ;.U & O W j e n 1 :.H B O % G n >.Q & # W z e n > :.H B O O G z ;.U & O ",
"#.| 8 z :.L W W o.j a ;.U O # z o.| 6 a :.L ' P o.j a :.Q # # z o.o.6 j ;.L Q W o.j a ;.Q O O z #.| 8 z :.L W W o.j a ;.U O # z ",
"o.U o.o.' # O a B =.W Y O e : j o.L +.o._ # O a B -.Y W & e : b o.Q o.o.) O + a V o.Q W & e : j o.U o.o.' # O a B =.W Y O e : j ",
"Q O = * @.j O 1 O O U `   e e #.` O = * @.b O 1 O O ) W   e 9 o.' O = * o.j O 1 O   _ `   e t o.Q O = * @.j O 1 O O U `   e e #.",
"O O 1 e K ' ;.P B e b Q v 7 b o.O   1 e L ' ;.L V 9 m Q b 6 b o.O O 1 8 U ' ;.W B e j Q h 7 b o.O O 1 e K ' ;.P B e b Q v 7 b o.",
"L 6 O z B y j | { | b _ D -.o.Q L 1 O a B y h | { | n U D o.o.U P 7 # a B j j | | | z ` D o.o.U L 6 O z B y j | { | b _ D -.o.Q ",
"0 o.B 0 a o.P O z j >.) O O Q z e o.B 0 j o.P O z a ,.) O # W z e o.B 0 a o.P O a z :.) O O U z 0 o.B 0 a o.P O z j >.) O O Q z "
};
