/* XPM */
static char *_70908793931437cfa77c26536bbf4a8u8s6nYwh8SyFGf9h[] = {
/* columns rows colors chars-per-pixel */
"64 64 54 1 ",
"  c #1B0F1B",
". c #1A0F1D",
"X c #1B0F1D",
"o c #1B0E1F",
"O c #1A0F1F",
"+ c #1D0F1C",
"@ c #1D0F1E",
"# c #1B101E",
"$ c #1C101C",
"% c #1D111D",
"& c #1E101D",
"* c #1C121D",
"= c #1C101E",
"- c #1D111F",
"; c #1C0F20",
": c #1D0F20",
"> c #2B192F",
", c #2C192F",
"< c #2F192E",
"1 c #2E182F",
"2 c #2B1730",
"3 c #2B1732",
"4 c #2E1731",
"5 c #2E1733",
"6 c #2A1830",
"7 c #2B1931",
"8 c #2A1832",
"9 c #2B1933",
"0 c #2C1831",
"q c #2F1930",
"w c #2D1932",
"e c #2C1833",
"r c #2F1832",
"t c #2E1A35",
"y c #2F1B37",
"u c #2F1A39",
"i c #321937",
"p c #311A36",
"a c #311A37",
"s c #331A37",
"d c #321B37",
"f c #301838",
"g c #311939",
"h c #321B38",
"j c #3D2643",
"k c #3F2445",
"l c #3E2545",
"z c #3F2644",
"x c #3E2447",
"c c #3E2646",
"v c #3F2646",
"b c #3F2548",
"n c #402546",
"m c #402747",
/* pixels */
"--o ##+-+#-#-+-o-#;o-#;+;o-#++#o--;o+#+;-+#--+-#-#;o##+-+#-#-+-o",
";8vbv58p+ppnjmee+8vbv22p-ppjmmt2;8bmv28g+pgjvvee+8vvv58p+ppnjmee",
"-5e8ppe,-pe8e5dp-5eeppe1+peee,pp#et8ppe,-pe9e,gp-5e8ppe,-pe8e5dp",
"+2,-85po-ge-ppp-+2>+e2p--p,-ppg-+2,+25p--peopsg-+2,-85po-ge-ppp-",
"+-+;-#+-##;+o-$---+-+#+--oo-;o----o++---$##+---++-+;-#+-##;+o-$-",
"e8+5vvvj85;2ee8>eeoevvvvee;2ee8,18-5vbvj2po,2ee,e8+5vvvj85;2ee8>",
"pp#,ee>5>58v-e,egp+,8e5>>5>v#>1epp#,,e5>882m#,,epp#,ee>5>58v-e,e",
"pg-8,5e1p#;p1+,-tp-e,e,5p-op,-5#tg$5,e25g+;p8+e#pg-8,5e1p#;p1+,-",
"#o$+-o-#o#$-+o-##- +#-##o++-#-o-#o-#-o-# o$-#-#-#o$+-o-#o#$-+o-#",
"-185ovvv-jsg-ptp+,e1;bvv#mpg$pyp-251;vvv#vpp$gyp-185ovvv-jsg-ptp",
"#ee,-t28on1,-pe8#e5,ot2>-j,<+g8e-e>2ot>8-n,<+g82#ee,-t28on1,-pe8",
"+,#5op25-t,+ope,$2#e#p25+pe##pe> 2-5op25#5po-pe>+,#5op25-t,+ope,",
"#-#-- -+#-++$o$+#--o- -+o--++o$;--- - -+#$++o#-o#-#-- -+#-++$o$+",
"+vxjvpup#pgvmvvg+vxvvpup#ppvmvvpovvjvpup-ppvmvvd+vxjvpup#pgvmvvg",
"-gtt>>5,op,,5>e--ppe,e2eop2,52>--dye,5>> p2>5,,--gtt>>5,op,,5>e-",
"-p2e5>##-pe#+-#--p8e,e-#-p2--#+-opeee,o--pe-+o-o-p2e5>##-pe#+-#-",
"-#o+o+;#-+#--+-#--;o-o-o-+#--+-#;;;+ -o--$#--$----o$##+-+#-#-+-o",
"+8vmv>eg+pgjvveeo2vmv2,p+pgjvvee;2vmv2ep+ppmvm8eo8vvv58p+ppnjmee",
"#t58ppe,-pe9e,gp#5e8ppee-pe9e,gp#e28ppe5opeee1gp-e28ppe,-pe8e5dp",
"+2>;95p+-peopsg--2,+85p+-peopsg--e8+t2p -p8+ppp#+2e-85po-ge-ppp-",
"--o-+#--$##+---+--o++---$##+---+--o-+-$---+;+;--+-o-+$+-##;+o-$-",
"22-5vbvv2po,2ee,18-5vvvj2po,2ee,12#5vvvv2eoe,e8eee-5vvvj85;2ee8>",
"pp-2,e2e882m#,,epp#>>e52882m#,,epp-2>ee2>e8no,,epp#,8e,5>58v-e,e",
"tg >5>51g+;p8+e#tg$5,5>5g+;p8+e#tg+,5,e5p#+p1-e#pg$e,5e1p#;p1+,-",
"-o$--o-# o$-#-#-#o-#-o-# o$-#-#--#o-##-oo#$-o-#-#o$+-o-#o#$-+o-#",
"-221;vvv#vpp$gyp-251;vvv#vpp$gyp-221+bvvovdp$ppp-185ovvv-jsg-ptp",
"+,eeot>8-n,<+g82-e>2ot>8-n,<+g82oee1ot>8-v,,op88#ee,-t28on1,-pe8",
"#2-5op25#5po-pe> 2-5op25#5po-pe>$>-5 p1e+f<;-pe>+,#5op25-t,+ope,",
"--- - -+#$++o#-o--- - -+#$++o#-oo---- -+#-++ o-+#-#-- -+#-++$o$+",
"ovvjvpup-ppvmvvdovvjvpup-ppvmvvd-vxjvpug#ppvmvvp+vxjvpup#pgvmvvg",
"-dye,5>> p2>5,,--dye,5>> p2>5,,-odte,,8e#p,>55>--gtt>>5,op,,5>e-",
"opeee,o--pe-+o-oopeee,o--pe-+o-o-p>e52--op1-#o-#-p2e5>##-pe#+-#-",
";;;+ -o--$#--$--;;;+ -o--$#--$---#o+o+;#-+#--+-#-#;o##+-+#-#-+-o",
";2vmv2ep+ppmvm8e;2vmv2ep+ppmvm8e+8vmv>eg+pgjvvee+8vvv58p+ppnjmee",
"#e28ppe5opeee1gp#e28ppe5opeee1gp#t58ppe,-pe9e,gp-5e8ppe,-pe8e5dp",
"-e8+t2p -p8+ppp#-e8+t2p -p8+ppp#+2>;95p+-peopsg-+2,-85po-ge-ppp-",
"--o-+-$---+;+;----o-+-$---+;+;----o-+#--$##+---++-+;-#+-##;+o-$-",
"12#5vvvv2eoe,e8e12#5vvvv2eoe,e8e22-5vbvv2po,2ee,e8+5vvvj85;2ee8>",
"pp-2>ee2>e8no,,epp-2>ee2>e8no>,epp-2,e2e882m#,,epp#,ee>5>58v-e,e",
"tg+,5,e5p#+p1-e#tg+,5,e5p#+p1-e-tg >5>51g+;p8+e#pg-8,5e1p#;p1+,-",
"-#o-##-oo#$-o-#--#o-##-oo#$#-o##-o$--o-# o$-#-#-#o$+-o-#o#$-+o-#",
"-221+bvvovdp$ppp-221+bvvovdp$pdp-221;vvv#vpp$gyp-185ovvv-jsg-ptp",
"oee1ot>8-v,,op88oee1ot>8-v,,-p88+,eeot>8-n,<+g82#ee,-t28on1,-pe8",
"$>-5 p1e+f<;-pe>$>-5 p1e+f<;ope,#2-5op25#5po-pe>+,#5op25-t,+ope,",
"o---- -+#-++ o-+o---- -+#-++$o-;--- - -+#$++o#-o#-#-- -+#-++$o$+",
"-vxjvpug#ppvmvvp-vxjvpug-ppvmvvpovvjvpup-ppvmvvd+vxjvpup#pgvmvvg",
"odte,,8e#p,>55>-odte,,8eop1>51,--dye,5>> p2>5,,--gtt>>5,op,,5>e-",
"-p>e52--op1-#o-#-p>e52--#p2-#o#+opeee,o--pe-+o-o-p2e5>##-pe#+-#-",
"--o$##+-+#-#-+-o--+o-o+-o+#--+$-;;;+ -o--$#--$----o$##+-+#-#-+-o",
"o8vvv58p+ppnjmee;8vbv>8p-ppjmm8e;2vmv2ep+ppmvm8eo8vvv58p+ppnjmee",
"-e28ppe,-pe8e5dpoet8ppe5+peeeepp#e28ppe5opeee1gp-e28ppe,-pe8e5dp",
"+2e-85po-ge-ppp-+2>+52p#-pe-ppg--e8+t2p -p8+ppp#+2e-85po-ge-ppp-",
"+-o-+$+-##;+o-$---+-$#+-###+;#----o-+-$---+;+;--+-o-+$+-##;+o-$-",
"ee-5vvvj85;2ee8>,e#5mbvveeo5ee8,12#5vvvv2eoe,e8eee-5vvvj85;2ee8>",
"pp#,8e,5>58v-e,egp+>ee>2,e8x#>1epp-2>ee2>e8no,,epp#,8e,5>58v-e,e",
"pg$e,5e1p#;p1+,-tg#5,,51p+-pe-1otg+,5,e5p#+p1-e#pg$e,5e1p#;p1+,-",
"#o$+-o-#o#$-+o-##- - --#o++---#--#o-##-oo#$-o-#-#o$+-o-#o#$-+o-#",
"-185ovvv-jsg-ptp+2e5ovvv#mpp ptp-221+bvvovdp$ppp-185ovvv-jsg-ptp",
"#ee,-t28on1,-pe8-,ee+t2e-j,<+g8eoee1ot>8-v,,op88#ee,-t28on1,-pe8",
"+,#5op25-t,+ope, 2-5op28+pe##ge8$>-5 p1e+f<;-pe>+,#5op25-t,+ope,",
"#-#-- -+#-++$o$+;-##-o-+o--++ ++o---- -+#-++ o-+#-#-- -+#-++$o$+",
"+vxjvpup#pgvmvvg+vbjvpup#gpvmmbg-vxjvpug#ppvmvvp+vxjvpup#pgvmvvg",
"-gtt>>5,op,,5>e--ppe>>>5-g>,e,,-odte,,8e#p,>55>--gtt>>5,op,,5>e-",
"-p2e5>##-pe#+-#--p8e,e$-op8+$o-#-p>e52--op1-#o-#-p2e5>##-pe#+-#-"
};
