/* XPM */
static char *_b72c2cbe2b4485be86395f8b00f81e3W3OYMp0JipUmOZPQ[] = {
/* columns rows colors chars-per-pixel */
"64 64 128 2 ",
"   c #101010",
".  c #111111",
"X  c gray7",
"o  c #676767",
"O  c #686866",
"+  c #696768",
"@  c #686868",
"#  c DimGray",
"$  c #68686A",
"%  c #737371",
"&  c #727272",
"*  c gray45",
"=  c #747273",
"-  c #737572",
";  c #747472",
":  c #757472",
">  c #757573",
",  c #747673",
"<  c #737375",
"1  c #757374",
"2  c #747275",
"3  c #757376",
"4  c #737574",
"5  c #737476",
"6  c #747474",
"7  c gray46",
"8  c #767475",
"9  c #747675",
"0  c #747476",
"q  c #767477",
"w  c #767676",
"e  c #7E7E7C",
"r  c #7F7F7D",
"t  c #7F7D7E",
"y  c #7D7F7E",
"u  c #7E7E7E",
"i  c gray50",
"p  c #807F7D",
"a  c #807E7F",
"s  c #7E807D",
"d  c #7E807F",
"f  c #F7AE2B",
"g  c #F8AE29",
"h  c #F8AF2C",
"j  c #F8AF2E",
"k  c #F6B02C",
"l  c #F8B02A",
"z  c #F9B02D",
"x  c #80807E",
"c  c #AE8E75",
"v  c #AD8D76",
"b  c #AE8E77",
"n  c #AF8F78",
"m  c #AE8E79",
"M  c #AF8F7A",
"N  c #B08D77",
"B  c #BD997F",
"V  c #FBEF4B",
"C  c #FDEE4B",
"Z  c #FCEF4B",
"A  c #FCEE4D",
"S  c #FCF04C",
"D  c #FDF04C",
"F  c #7F7D80",
"G  c #7E7E80",
"H  c #7F7F81",
"J  c #817F80",
"K  c #807E81",
"L  c #7F8180",
"P  c #7F8082",
"I  c #76CDFA",
"U  c #77CEFB",
"Y  c #77CDFC",
"T  c #79CDFB",
"R  c #78CFFA",
"E  c #78CFFC",
"W  c #7ACEFC",
"Q  c #5DEBF5",
"!  c #5DECF4",
"~  c #5CECF5",
"^  c #5EECF6",
"/  c #808080",
"(  c #808082",
")  c #8F8F8D",
"_  c #8F8D8E",
"`  c #8E8E8E",
"'  c gray56",
"]  c #908F8D",
"[  c #908E8F",
"{  c #8E908D",
"}  c #8F918E",
"|  c #8E908F",
" . c #90908E",
".. c #8F8D90",
"X. c #8E8E90",
"o. c #8F8F91",
"O. c #8F9190",
"+. c #909090",
"@. c #909092",
"#. c #BD9981",
"$. c #BC9A81",
"%. c #BE9A84",
"&. c #D7AE90",
"*. c #D7AE92",
"=. c #D8AF93",
"-. c #D8AE95",
";. c #DAAE95",
":. c #D7B093",
">. c #D9B094",
",. c #D8B194",
"<. c #E3C0AA",
"1. c #E4C0AA",
"2. c #E4C1AB",
"3. c #FEFEB4",
"4. c #FEFFB5",
"5. c #FFFFB5",
"6. c #FEFEB6",
"7. c #FFFFB7",
"8. c #C7E7FC",
"9. c #C6E6FD",
"0. c #C5E7FF",
"q. c #C7E7FE",
"w. c #C6E6FF",
"e. c #C9E7FF",
"r. c #C5E8FE",
"t. c #FDFFFE",
"y. c #FEFEFE",
"u. c white",
/* pixels */
"i 6 6 6 6 x O.' o | i 6 2 6 6 i i % < 6 6 i +...@  .G 6 6 6 6 G x 6 2 6 6 i ' ' @ ' i 6 6 6 6 i i 4 * 2 6 L ' +.@ ' i 6 6 6 6 i ",
"i i ' ' [ | ' [ 6 ' | ' O J i 6 i i ' ' ' ' 6 6 6 | .. .@ d x 6 x G ' ' ' ' ' ' 6 ' ' ' @ i / 6 i i ' ' ..+.6 6 6 ' ' +.@ i i 6 ",
"p o 6 6 A % 6 * ' 6 i L 5.A i i i @ 6 2 @ 6 6 6 ..6 d i x ..G x G o 6 , . 6 6 6 ' 6 i i . . / i i @ , 2 @ 6 , 2 ' 6 i i i +.i i ",
"i +.i / G @ x 5.f i 2 2 , 2 6 d i +.i i i @ /  .d x 6 6 6 6 6 G x +.G / d @ / . . i 6 6 6 6 6 / i  .i i p @ i ' i i * 6 * 6 6 i ",
"i ' ' = 4 * 6 < 6 6 [ | ..| ' @ x ' ' 4 2 , 6 6 6 6 ' ' ' '  .@ i ' ' * 6 6 6 2 6 6 ' ' ' ' ' @ i ' ' 4 2 * 2 , 6 6 ' ' ' ' ' @ ",
"6 * i / e u.5.6 d @ u.5.6 6 @ d 6 6 i i i 6 6 6 i @ i L * * @ / * * i / p . . 6 i + . . 6 * @ / 2 4 i i i , , 2 i O i G * * @ / ",
"' ' i u.5.Z Z h G x A f [ | | @ ..| G / i % ..| x G x i ' ' ' o ' ' i . . . . . i i . . ' +.' @ ' ' i J i , ' ' i i i i ' ' +.o ",
"/ i i 6 6 * 6 6 6 O , = , 6 G i x G x 6 6 6 6 % 6 @ 6 6 < = i i i i i 6 6 6 * 4 6 @ 4 6 6 6 i i i i i , * 2 2 , 6 o 6 6 6 6 i i ",
"/ 5.Z O ' 6 d i u.5.' | ' ..| ..i ' ' @ +.6 i i d .. .+.' ' ' ' i . . o ' , i i . .  .' ' ' ' ' i +.' O +., i i J '  .+...|  ...",
"i 6 6 6 2 6 6 5.h h f 6 , = | L i 6 6 6 6 6 6 i @ x G 6 % < ' i i * 6 6 2 4 2 . . . . 6 6 * ' i i 6 6 2 2 2 4 i $ i d 6 6 6 ' d ",
"i i +.2 D | [ 6 @ 6 O.' O.i i i i i ' 6 6 ' ' 6 @ 6 ..| +.G i i / i ' 6 . ' ' * @ 6 ' ' +./ i i i i [ , , ' ' 6 o 6 | ..| i i i ",
"$ i G L = x d d ..+.i 5.l ' ' O o i / i 6 / i i .. .x / G  .' @ @ i i i 6 / i i ' ' i . . ' ' @ $ i d i 2 i i / | [ p / p ' ' @ ",
"i 4 2 , 6 * 4 6 5.u.5.Z D z , i i 6 * 6 6 6 6 6 +.+.6 % 6 6 6 x i 6 6 6 6 * * 6 . . . . . . 6 i i % * 6 6 6 6 6 +.+.2 * 6 6 6 / ",
"i ' 6 5.g / i 2 = h h 6 i G ' ' i ' ' ' | ..x 6 6 6 @ 6 G x +.+.d [ 6 . . i i 6 4 . . , i J ' ' i ' +.' ' ' i 6 6 6 O 4 J G [ | ",
"i i p 6 6 6 4 % i i ' ' i 2 2 i i i / 6 6 6 6 6 i i O...G 6 6 G p G / 6 6 6 6 6 i i ' ' i 6 6 i i i i 6 6 6 6 6 i i ' ' / 6 6 d ",
", 2 , 6 @ +.+.i i i x 6 6 , i i 6 < 6 6 @  .' i i d i 6 6 6 x x 6 6 6 6 @ +.+.i i i i 2 6 6 i i 6 6 6 6 @ ' ' i i i i 6 6 6 G p ",
"i 6 6 2 6 i ' ' @ ' i 6 4 6 6 i i 6 , 2 6 i ' ' @ ' i 6 6 6 6 G i 6 6 6 6 i ' ' @ ' i 6 6 6 6 i i 6 6 6 6 x O.' + | i 2 = 6 6 p ",
"G p +. ...| ..+.6 ' ' ' @ i i 2 i i | ..' ' 6 6 6 ' ' ' @ i x 6 i i ' ' ' ' ' ' 6 ' ' ' @ i / 6 i i ' ' [ | ' [ 4 ' ' ' @ d G 6 ",
"J + 6 * R 6 6 = | 6 i i q.U L p i @ 6 6 @ 6 6 6 ' 6 x i i ' i G i o 6 * . 2 6 6 ' 6 / J . . / i p o 6 6 A % 6 * ' 2 i L 5.V x i ",
"i +.i i G o x e.Q i 6 6 6 6 4 G i ..d p / @ G  .i i < 6 * 6 6 x i +.i / / O / . . i 6 6 6 * 6 / i +.i / G @ x 5.f i 4 2 6 2 6 / ",
"i ' [ = 6 6 , , 6 6 +... ...' @ i ' ' 6 6 , 2 6 6 6  .' ' ' [ @ i ' ' * 6 6 6 * 6 6 ' ' ' ' ' @ i ' ' = 4 * 6 < 6 6 [ | ..| O.@ ",
", 6 i i x u.q.2 G @ u.q.6 6 @ / % 6 i i i 6 6 6 i @ G / * , @ d 6 6 i i i . . 6 L @ . . 6 * @ / 2 4 i / e u.5.6 d @ u.5.6 6 @ d ",
"' ' i u.r.W U Q G p W Q +.'  .@ ..| i / i 6 ' ' / G i i ' ' ' o ' ' i . . . .   i i .   ' +.' @ ' ' i u.5.Z Z h x G A k ' ' | @ ",
"i i / , 2 6 6 6 6 @ 4 6 6 6 G / G x i 6 6 6 6 6 6 o % 6 6 2 i i i i i 4 , 2 * , 2 @ , 2 6 6 i i x i i 6 6 * 6 6 6 O = , = 6 G i ",
"i r.U @ O.4 i d u.q.' ' ' ..|  .x  ...@ +.6 i x G ..| +.' ' ' ' i   . @ ' 6 i i . . +.' ' ' ' ' / 5.Z O ' 6 d i u.5.' | ' ..| ..",
"i = 6 * 6 6 6 e.Q Q Q * * 6  .G G 6 6 6 6 6 % G @ x x 6 6 2 ' i i 2 6 6 6 6 6 . . . . 6 6 * ' i i 6 6 6 2 6 6 5.h h f 6 , = | L ",
"i J ..6 W ..' * @ * ' ' | i / G i i +.6 6 '  .6 @ 6 ..| O.i x G d i ' 6 . ' ' * @ 6 ' ' +.i i i i i +.2 D | [ 6 @ 6 O.' O.i i i ",
"@ p p d 6 / i i O.' i q.Q | | @ o i L i 6 / G / | ..x / i ' ' @ O i i i 2 / i i ' ' i . . +.' @ @ i G L = x d d ..+.i 5.l ' ' O ",
"/ 6 6 6 6 2 6 < q.u.q.R W Q 6 x i 6 * 6 6 6 6 6 +. .6 * 6 6 6 x / 6 6 6 * * * ,   . . . . . 6 i G 6 6 , 6 * 4 6 5.u.5.Z D z , i ",
"G ' 6 e.Q p p 6 , Q Q * i i | ..i ' ' '  .+.G 6 6 6 @ 2 x / | ..J +.6 . . i i 2 4 . . 6 J i ' ' i ' 6 5.g / i 2 = h h 6 i G ' ' ",
"G p G 6 6 % 6 6 i i ' ' G 6 2 x i i i 6 6 6 6 6 / G  .' G 6 6 x i i x 6 6 6 6 6 i i +.' i 6 6 i i i p 6 6 6 4 % i i ' ' i 2 2 i ",
"6 6 6 6 o [ O.G i i i * 6 * p G 6 * 6 6 @ ..| x G x i 4 6 6 x G 6 * 6 6 @ | [ d i i i 6 6 6 i i 6 2 , 6 @ +.+.i i i x 6 6 , i i ",
"i 6 6 6 6 i ' [ @ | d 6 2 6 6 i d 6 6 6 6 J ..O.$ ' i 6 6 6 6 p L 6 6 6 6 G ..O.@ ' i 4 < , 6 G p 6 * 6 6 i ' +.@ ' i 6 6 6 6 i ",
"i i ' ' ' ' ' +.6 ' +.' O i i 6 p d ..' | +.| ..% ' ..| @ G p 2 i i ' ' | +.| ..6 ' ..| + i p 2 i G ' ' ' +.6 6 6 ' ' +.@ i i 6 ",
"p o 6 6 Z * 6 6 ' 6 G L 5.V i i G @ , = #.4 * 6 ' 6 / J ,.B i i i @ , 6 #.6 , 2 O.6 / p &.B i i i @ 6 6 @ 6 6 6 ' 6 i i i +.i i ",
"i +.i / G O G 5.f i 6 2 6 2 6 / i +.d x d + i &.b p 6 6 2 , 6 i i ' i p d @ G &.b J 6 6 2 , 6 i i +.i i i @ i ' i i * 6 * 6 6 i ",
"i ' ' = % % 4 % 6 6 +.+...| ' @ p ' ..6 6 , < 6 6 6 O.+.O.| | @ p ' ' 6 6 , * 6 2 6 | [ | | | @ i ' ' 6 6 * 6 6 6 6 ' ' ' ' ' @ ",
"6 6 i / i u.5.6 d @ u.5.6 6 O d 6 6 L G d 2.,.* p @ <.,.6 % + d 2 6 i i / 2.,.* J @ <.,.6 6 + x 6 6 i i i 6 6 6 i o i / * * @ / ",
"' ' i u.5.A Z h i i A k [ ' | @  .' i <.;.#.#.m i p B b ' ' ' @ +.' d 2.;.#.B m i p B b ' ' ' @ ' ' i / i 6 ' ' i i i i ' ' +.o ",
"/ i i 6 6 * 6 6 6 O = , 6 6 G L i i d 6 6 6 6 6 6 @ = 2 6 6 i i i i d 6 6 6 6 6 6 @ * 6 6 6 i i i i i 6 * 6 6 6 6 o 6 6 6 6 i i ",
"/ 5.A O ' 6 d x u.5.' | ' ..' ..i =.#.@ +.6 i G 2.=.' |  .' ' ' i =.#.@ ' 6 i G 2.>.) ' | ' ' ' i ' ' @ +.6 i i i ' ' +.' ' ' ' ",
"i 6 6 6 2 6 6 5.h h f 2 6 6 ' d i 6 6 6 6 6 6 =.m b N % 6 6 ' d i 6 6 6 6 6 6 =.m b N % 6 % ' d i 6 6 6 6 6 6 i @ i i 6 6 6 ' i ",
"i i ' 2 D ' ' 6 o = ' ' O.d p i i / +.6 B ' +.* o * ' ' ' i i i x / +.6 B [ +., o < |  .' i i G i i ' 6 6 ' ' 6 @ 6 ' ' ' i i i ",
"o G i L = L i i ' +.i 5.l | ' @ @ i i i 2 J i i ' ' i ;.b ' [ O @ G x G 2 J i G ' ' i ;.b ' [ + @ i i i 6 i i / ' ' i / i ' ' @ ",
"x 6 2 , 6 * 4 6 5.u.5.Z D h 6 i / 2 = 2 6 * 6 6 >.<.,.B #.b 6 G / 6 = 6 6 * 6 6 &.<.,.B %.b = p i 6 * 6 6 6 6 6 +.' 6 * 6 6 6 / ",
"G [ 6 5.g / d 6 6 z f , p G ' ' i ' , &.M J i 6 6 b b 6 i d [ ' G +.2 &.m G x 6 6 m b 6 i i ' ' i ' ' ' ' ' i 6 6 6 @ 6 i i ' ' ",
"x G p 6 6 6 6 6 G i  .' G 6 6 i i i i , , 2 6 6 x G ' ' p 6 6 i J i i , 6 6 6 6 d i ' ' i 2 , i i i i 6 6 6 6 6 i i ' ' i 6 6 i ",
"6 6 , 6 @  .+.G x d G 6 6 6 i i 6 6 2 4 + ' ' L G x G 6 , 6 i i 6 6 6 6 @ ' +.G i i G 6 , , p i 6 6 6 6 @ ' ' i i i i 6 6 6 i i ",
"x 6 * 6 6 d  .+.@ ..i 2 6 6 6 i G 6 6 6 6 / ..| @ | p 6 4 6 6 / i 6 6 2 6 G ..O.$ ' i 6 6 6 6 x i 6 * 6 6 i ' +.@ ' i 6 6 6 6 i ",
"i i ' ' .. .6 6 6 | ' +.@ i i 6 p G +.+...+.+.+.6 [ O...@ p G 6 i i ' [ | +.O...% ' ..| @ i J 2 i i ' ' ' +.6 6 6 ' ' +.@ i i 6 ",
"i @ 6 6 @ 6 2 ,  .6 G i G  .i i p @ , * R 6 2 = ' 6 i i r.U i i i @ , , #.6 * 6 ' 4 / J :.B G x i @ 6 6 @ 6 6 6 ' 6 i i i +.i i ",
"i +.i i i @ i ' G x , 6 , 6 6 i i [ i i G o p e.Q i 6 6 6 6 = i i ' d x d @ i &.b p 6 6 2 , 6 p i +.i i i @ i ' i i * 6 * 6 6 i ",
"i ' ' 6 6 * , 2 6 6 ' ' ' ' ' + / ' | = , 6 , , 6 6 ..' ' ..' @ p ' ..6 6 6 4 6 2 6 | +.| | | @ i ' ' 6 6 * 6 6 6 6 ' ' ' ' ' @ ",
", < i i i 6 2 , i o i / * * @ / 6 6 i i i u.q.6 / @ u.q.6 4 @ / 6 6 L G d 2.,.* p @ 2.,.2 , o x 6 * i i i 6 6 6 i o i / * * @ / ",
"' ' i x i 2 ' ' i i x i | ....o  ...i u.q.R U Q i p W Q ' ' ' @  .' i <.;.#.B m i p B b [ ' [ @ ' ' i / i 6 ' ' i i i i ' ' +.o ",
"i i i 2 < , , 2 6 o 6 6 6 6 x d G G p , 2 2 6 6 6 @ 4 6 6 6 i / i i d 6 6 6 6 2 6 @ 6 = 6 6 d d i i i 6 * 6 6 6 6 o 6 6 6 6 i i ",
"d ..' @ +.6 i x G  . .+...|  ...i q.U @ ' 4 J i u.9.' ' | ..' ' i =.#.@ +.6 i G 2.=.' |  ...| [ i ' ' @ +.6 i i i ' ' +.' ' ' ' ",
"x 6 6 6 6 6 6 d @ G d 6 6 6 ' d i , * * 6 6 6 q.Q Q Q * , 6 ' i i 6 6 6 6 6 6 =.b b N % 6 6 [ d i 6 6 6 6 6 6 i @ i i 6 6 6 ' i ",
"G x ' 6 6 ' ..6 @ 6 | .. .i i i i J ..6 U +.+.* @ * ' ' ' i L i i / +.6 B ' +.* o < ' ' | i i d i i ' 6 6 ' ' 6 @ 6 ' ' ' i i i ",
"@ i x i 6 G x /  ...x / i ' ' @ O d J J 6 / G p O.' i q.Q ' | @ @ i i i 2 J i i ' ' i ;.b ' [ O @ i i i 6 i i / ' ' i / i ' ' @ ",
"i 6 * 6 6 6 6 6 +. .6 * 6 6 6 / / 6 6 2 6 = 6 4 q.u.q.W W Q 6 i / 2 = 2 6 * 6 6 =.<.,.B #.c 6 i i 6 * 6 6 6 6 6 +.' 6 * 6 6 6 / ",
"i ' ..'  .| G 6 6 6 @ 6 G x | ..G ' 6 q.Q G G 6 * Q Q < i i | ' i ' , &.M J i 6 6 b b 6 i i [ ' i ' ' ' ' ' i 6 6 6 @ 6 i i ' ' ",
"G x d 6 6 6 6 6 G x ' ' G 6 6 x p i J 6 , = % 6 i i ' ' / 6 2 i i i i , , 2 6 6 G / ' ' i 6 6 i i i i 6 6 6 6 6 i i ' ' i 6 6 i ",
"6 6 6 6 @ .. .G x G i 6 6 6 x G 6 6 6 6 o | ' i i G i % 6 < p i 6 6 2 4 + ' ' L p d G 6 , 6 i i 6 6 6 6 @ ' ' i i i i 6 6 6 i i "
};
